STARTFONT 2.1
COMMENT $Xorg: 6x9.bdf,v 1.3 2000/08/21 16:42:31 coskrey Exp $
COMMENT Copyright 1989, 1998  The Open Group
COMMENT 
COMMENT All Rights Reserved.
COMMENT
COMMENT The above copyright notice and this permission notice shall be included in
COMMENT all copies or substantial portions of the Software.
COMMENT 
COMMENT THE SOFTWARE IS PROVIDED "AS IS", WITHOUT WARRANTY OF ANY KIND, EXPRESS OR
COMMENT IMPLIED, INCLUDING BUT NOT LIMITED TO THE WARRANTIES OF MERCHANTABILITY,
COMMENT FITNESS FOR A PARTICULAR PURPOSE AND NONINFRINGEMENT.  IN NO EVENT SHALL THE
COMMENT OPEN GROUP BE LIABLE FOR ANY CLAIM, DAMAGES OR OTHER LIABILITY, WHETHER IN
COMMENT AN ACTION OF CONTRACT, TORT OR OTHERWISE, ARISING FROM, OUT OF OR IN
COMMENT CONNECTION WITH THE SOFTWARE OR THE USE OR OTHER DEALINGS IN THE SOFTWARE.
COMMENT 
COMMENT Except as contained in this notice, the name of The Open Group shall not be
COMMENT used in advertising or otherwise to promote the sale, use or other dealings
COMMENT in this Software without prior written authorization from The Open Group.
COMMENT  
COMMENT  Author:  Jim Fulton, MIT X Consortium
COMMENT  
FONT -Misc-Fixed-Medium-R-Normal--9-90-75-75-C-60-ISO646.1991-IRV
SIZE 9 75 75
FONTBOUNDINGBOX 6 9 0 -2
STARTPROPERTIES 19
FONTNAME_REGISTRY ""
FOUNDRY "Misc"
FAMILY_NAME "Fixed"
WEIGHT_NAME "Medium"
SLANT "R"
SETWIDTH_NAME "Normal"
ADD_STYLE_NAME ""
PIXEL_SIZE 9
POINT_SIZE 90
RESOLUTION_X 75
RESOLUTION_Y 75
SPACING "C"
AVERAGE_WIDTH 60
CHARSET_REGISTRY "ISO646.1991"
CHARSET_ENCODING "IRV"
FONT_ASCENT 7
FONT_DESCENT 2
DEFAULT_CHAR 0
COPYRIGHT "Copyright 1989, 1998 The Open Group"
ENDPROPERTIES
CHARS 128
STARTCHAR C000
ENCODING 0
SWIDTH 666 0
DWIDTH 6 0
BBX 6 9 0 -2
BITMAP
00
00
00
00
00
00
00
00
00
ENDCHAR
STARTCHAR C001
ENCODING 1
SWIDTH 666 0
DWIDTH 6 0
BBX 6 9 0 -2
BITMAP
00
00
30
78
fc
78
30
00
00
ENDCHAR
STARTCHAR C002
ENCODING 2
SWIDTH 666 0
DWIDTH 6 0
BBX 6 9 0 -2
BITMAP
00
28
54
28
54
28
54
28
54
ENDCHAR
STARTCHAR C003
ENCODING 3
SWIDTH 666 0
DWIDTH 6 0
BBX 6 9 0 -2
BITMAP
00
50
70
50
00
1c
08
08
00
ENDCHAR
STARTCHAR C004
ENCODING 4
SWIDTH 666 0
DWIDTH 6 0
BBX 6 9 0 -2
BITMAP
00
70
40
60
40
1c
10
18
10
ENDCHAR
STARTCHAR C005
ENCODING 5
SWIDTH 666 0
DWIDTH 6 0
BBX 6 9 0 -2
BITMAP
00
30
40
30
00
18
14
18
14
ENDCHAR
STARTCHAR C006
ENCODING 6
SWIDTH 666 0
DWIDTH 6 0
BBX 6 9 0 -2
BITMAP
00
40
40
40
60
1c
10
18
10
ENDCHAR
STARTCHAR C007
ENCODING 7
SWIDTH 666 0
DWIDTH 6 0
BBX 6 9 0 -2
BITMAP
00
00
30
48
30
00
00
00
00
ENDCHAR
STARTCHAR C010
ENCODING 8
SWIDTH 666 0
DWIDTH 6 0
BBX 6 9 0 -2
BITMAP
00
10
10
7c
10
10
00
7c
00
ENDCHAR
STARTCHAR C011
ENCODING 9
SWIDTH 666 0
DWIDTH 6 0
BBX 6 9 0 -2
BITMAP
00
48
68
58
48
10
10
10
1c
ENDCHAR
STARTCHAR C012
ENCODING 10
SWIDTH 666 0
DWIDTH 6 0
BBX 6 9 0 -2
BITMAP
00
50
50
20
20
1c
08
08
08
ENDCHAR
STARTCHAR C013
ENCODING 11
SWIDTH 666 0
DWIDTH 6 0
BBX 6 9 0 -2
BITMAP
10
10
10
10
f0
00
00
00
00
ENDCHAR
STARTCHAR C014
ENCODING 12
SWIDTH 666 0
DWIDTH 6 0
BBX 6 9 0 -2
BITMAP
00
00
00
00
f0
10
10
10
10
ENDCHAR
STARTCHAR C015
ENCODING 13
SWIDTH 666 0
DWIDTH 6 0
BBX 6 9 0 -2
BITMAP
00
00
00
00
1c
10
10
10
10
ENDCHAR
STARTCHAR C016
ENCODING 14
SWIDTH 666 0
DWIDTH 6 0
BBX 6 9 0 -2
BITMAP
10
10
10
10
1c
00
00
00
00
ENDCHAR
STARTCHAR C017
ENCODING 15
SWIDTH 666 0
DWIDTH 6 0
BBX 6 9 0 -2
BITMAP
10
10
10
10
fc
10
10
10
10
ENDCHAR
STARTCHAR C020
ENCODING 16
SWIDTH 666 0
DWIDTH 6 0
BBX 6 9 0 -2
BITMAP
00
fc
00
00
00
00
00
00
00
ENDCHAR
STARTCHAR C021
ENCODING 17
SWIDTH 666 0
DWIDTH 6 0
BBX 6 9 0 -2
BITMAP
00
00
00
fc
00
00
00
00
00
ENDCHAR
STARTCHAR C022
ENCODING 18
SWIDTH 666 0
DWIDTH 6 0
BBX 6 9 0 -2
BITMAP
00
00
00
00
fc
00
00
00
00
ENDCHAR
STARTCHAR C023
ENCODING 19
SWIDTH 666 0
DWIDTH 6 0
BBX 6 9 0 -2
BITMAP
00
00
00
00
00
fc
00
00
00
ENDCHAR
STARTCHAR C024
ENCODING 20
SWIDTH 666 0
DWIDTH 6 0
BBX 6 9 0 -2
BITMAP
00
00
00
00
00
00
00
fc
00
ENDCHAR
STARTCHAR C025
ENCODING 21
SWIDTH 666 0
DWIDTH 6 0
BBX 6 9 0 -2
BITMAP
10
10
10
10
1c
10
10
10
10
ENDCHAR
STARTCHAR C026
ENCODING 22
SWIDTH 666 0
DWIDTH 6 0
BBX 6 9 0 -2
BITMAP
10
10
10
10
f0
10
10
10
10
ENDCHAR
STARTCHAR C027
ENCODING 23
SWIDTH 666 0
DWIDTH 6 0
BBX 6 9 0 -2
BITMAP
10
10
10
10
fc
00
00
00
00
ENDCHAR
STARTCHAR C030
ENCODING 24
SWIDTH 666 0
DWIDTH 6 0
BBX 6 9 0 -2
BITMAP
00
00
00
00
fc
10
10
10
10
ENDCHAR
STARTCHAR C031
ENCODING 25
SWIDTH 666 0
DWIDTH 6 0
BBX 6 9 0 -2
BITMAP
10
10
10
10
10
10
10
10
10
ENDCHAR
STARTCHAR C032
ENCODING 26
SWIDTH 666 0
DWIDTH 6 0
BBX 6 9 0 -2
BITMAP
00
0c
30
40
30
4c
70
1c
00
ENDCHAR
STARTCHAR C033
ENCODING 27
SWIDTH 666 0
DWIDTH 6 0
BBX 6 9 0 -2
BITMAP
00
60
18
04
18
64
1c
70
00
ENDCHAR
STARTCHAR C034
ENCODING 28
SWIDTH 666 0
DWIDTH 6 0
BBX 6 9 0 -2
BITMAP
00
00
7c
28
28
28
6c
00
00
ENDCHAR
STARTCHAR C035
ENCODING 29
SWIDTH 666 0
DWIDTH 6 0
BBX 6 9 0 -2
BITMAP
00
04
08
7c
10
7c
20
40
00
ENDCHAR
STARTCHAR C036
ENCODING 30
SWIDTH 666 0
DWIDTH 6 0
BBX 6 9 0 -2
BITMAP
00
18
24
20
78
20
28
74
44
ENDCHAR
STARTCHAR C037
ENCODING 31
SWIDTH 666 0
DWIDTH 6 0
BBX 6 9 0 -2
BITMAP
00
00
00
00
10
00
00
00
00
ENDCHAR
STARTCHAR C040
ENCODING 32
SWIDTH 666 0
DWIDTH 6 0
BBX 6 9 0 -2
BITMAP
00
00
00
00
00
00
00
00
00
ENDCHAR
STARTCHAR C041
ENCODING 33
SWIDTH 666 0
DWIDTH 6 0
BBX 6 9 0 -2
BITMAP
00
10
10
10
10
00
10
00
00
ENDCHAR
STARTCHAR C042
ENCODING 34
SWIDTH 666 0
DWIDTH 6 0
BBX 6 9 0 -2
BITMAP
00
28
28
28
00
00
00
00
00
ENDCHAR
STARTCHAR C043
ENCODING 35
SWIDTH 666 0
DWIDTH 6 0
BBX 6 9 0 -2
BITMAP
00
28
28
7c
28
7c
28
28
00
ENDCHAR
STARTCHAR C044
ENCODING 36
SWIDTH 666 0
DWIDTH 6 0
BBX 6 9 0 -2
BITMAP
10
38
54
50
38
14
54
38
10
ENDCHAR
STARTCHAR C045
ENCODING 37
SWIDTH 666 0
DWIDTH 6 0
BBX 6 9 0 -2
BITMAP
40
a8
48
10
20
48
54
08
00
ENDCHAR
STARTCHAR C046
ENCODING 38
SWIDTH 666 0
DWIDTH 6 0
BBX 6 9 0 -2
BITMAP
00
30
48
48
30
4c
48
34
00
ENDCHAR
STARTCHAR C047
ENCODING 39
SWIDTH 666 0
DWIDTH 6 0
BBX 6 9 0 -2
BITMAP
00
30
10
10
20
00
00
00
00
ENDCHAR
STARTCHAR C050
ENCODING 40
SWIDTH 666 0
DWIDTH 6 0
BBX 6 9 0 -2
BITMAP
00
10
20
20
20
20
20
10
00
ENDCHAR
STARTCHAR C051
ENCODING 41
SWIDTH 666 0
DWIDTH 6 0
BBX 6 9 0 -2
BITMAP
00
20
10
10
10
10
10
20
00
ENDCHAR
STARTCHAR C052
ENCODING 42
SWIDTH 666 0
DWIDTH 6 0
BBX 6 9 0 -2
BITMAP
00
00
44
28
7c
28
44
00
00
ENDCHAR
STARTCHAR C053
ENCODING 43
SWIDTH 666 0
DWIDTH 6 0
BBX 6 9 0 -2
BITMAP
00
00
10
10
7c
10
10
00
00
ENDCHAR
STARTCHAR C054
ENCODING 44
SWIDTH 666 0
DWIDTH 6 0
BBX 6 9 0 -2
BITMAP
00
00
00
00
00
30
10
10
20
ENDCHAR
STARTCHAR C055
ENCODING 45
SWIDTH 666 0
DWIDTH 6 0
BBX 6 9 0 -2
BITMAP
00
00
00
00
7c
00
00
00
00
ENDCHAR
STARTCHAR C056
ENCODING 46
SWIDTH 666 0
DWIDTH 6 0
BBX 6 9 0 -2
BITMAP
00
00
00
00
00
30
30
00
00
ENDCHAR
STARTCHAR C057
ENCODING 47
SWIDTH 666 0
DWIDTH 6 0
BBX 6 9 0 -2
BITMAP
00
08
08
10
20
40
40
00
00
ENDCHAR
STARTCHAR C060
ENCODING 48
SWIDTH 666 0
DWIDTH 6 0
BBX 6 9 0 -2
BITMAP
00
30
48
58
68
48
30
00
00
ENDCHAR
STARTCHAR C061
ENCODING 49
SWIDTH 666 0
DWIDTH 6 0
BBX 6 9 0 -2
BITMAP
00
20
60
20
20
20
70
00
00
ENDCHAR
STARTCHAR C062
ENCODING 50
SWIDTH 666 0
DWIDTH 6 0
BBX 6 9 0 -2
BITMAP
00
30
48
08
30
40
78
00
00
ENDCHAR
STARTCHAR C063
ENCODING 51
SWIDTH 666 0
DWIDTH 6 0
BBX 6 9 0 -2
BITMAP
00
78
08
38
08
08
78
00
00
ENDCHAR
STARTCHAR C064
ENCODING 52
SWIDTH 666 0
DWIDTH 6 0
BBX 6 9 0 -2
BITMAP
00
18
28
48
7c
08
08
00
00
ENDCHAR
STARTCHAR C065
ENCODING 53
SWIDTH 666 0
DWIDTH 6 0
BBX 6 9 0 -2
BITMAP
00
78
40
50
68
08
78
00
00
ENDCHAR
STARTCHAR C066
ENCODING 54
SWIDTH 666 0
DWIDTH 6 0
BBX 6 9 0 -2
BITMAP
00
30
40
50
68
48
30
00
00
ENDCHAR
STARTCHAR C067
ENCODING 55
SWIDTH 666 0
DWIDTH 6 0
BBX 6 9 0 -2
BITMAP
00
78
48
08
18
30
20
00
00
ENDCHAR
STARTCHAR C070
ENCODING 56
SWIDTH 666 0
DWIDTH 6 0
BBX 6 9 0 -2
BITMAP
00
30
48
30
48
48
30
00
00
ENDCHAR
STARTCHAR C071
ENCODING 57
SWIDTH 666 0
DWIDTH 6 0
BBX 6 9 0 -2
BITMAP
00
30
48
58
28
08
30
00
00
ENDCHAR
STARTCHAR C072
ENCODING 58
SWIDTH 666 0
DWIDTH 6 0
BBX 6 9 0 -2
BITMAP
00
00
30
30
00
30
30
00
00
ENDCHAR
STARTCHAR C073
ENCODING 59
SWIDTH 666 0
DWIDTH 6 0
BBX 6 9 0 -2
BITMAP
00
00
30
30
00
30
10
10
20
ENDCHAR
STARTCHAR C074
ENCODING 60
SWIDTH 666 0
DWIDTH 6 0
BBX 6 9 0 -2
BITMAP
00
00
0c
30
40
30
0c
00
00
ENDCHAR
STARTCHAR C075
ENCODING 61
SWIDTH 666 0
DWIDTH 6 0
BBX 6 9 0 -2
BITMAP
00
00
00
7c
00
7c
00
00
00
ENDCHAR
STARTCHAR C076
ENCODING 62
SWIDTH 666 0
DWIDTH 6 0
BBX 6 9 0 -2
BITMAP
00
00
60
18
04
18
60
00
00
ENDCHAR
STARTCHAR C077
ENCODING 63
SWIDTH 666 0
DWIDTH 6 0
BBX 6 9 0 -2
BITMAP
30
48
08
30
20
00
20
00
00
ENDCHAR
STARTCHAR C100
ENCODING 64
SWIDTH 666 0
DWIDTH 6 0
BBX 6 9 0 -2
BITMAP
00
38
48
54
58
40
38
00
00
ENDCHAR
STARTCHAR C101
ENCODING 65
SWIDTH 666 0
DWIDTH 6 0
BBX 6 9 0 -2
BITMAP
00
10
28
44
7c
44
44
00
00
ENDCHAR
STARTCHAR C102
ENCODING 66
SWIDTH 666 0
DWIDTH 6 0
BBX 6 9 0 -2
BITMAP
00
78
44
78
44
44
78
00
00
ENDCHAR
STARTCHAR C103
ENCODING 67
SWIDTH 666 0
DWIDTH 6 0
BBX 6 9 0 -2
BITMAP
00
30
48
40
40
48
30
00
00
ENDCHAR
STARTCHAR C104
ENCODING 68
SWIDTH 666 0
DWIDTH 6 0
BBX 6 9 0 -2
BITMAP
00
70
48
48
48
48
70
00
00
ENDCHAR
STARTCHAR C105
ENCODING 69
SWIDTH 666 0
DWIDTH 6 0
BBX 6 9 0 -2
BITMAP
00
78
40
70
40
40
78
00
00
ENDCHAR
STARTCHAR C106
ENCODING 70
SWIDTH 666 0
DWIDTH 6 0
BBX 6 9 0 -2
BITMAP
00
78
40
70
40
40
40
00
00
ENDCHAR
STARTCHAR C107
ENCODING 71
SWIDTH 666 0
DWIDTH 6 0
BBX 6 9 0 -2
BITMAP
00
30
48
40
58
48
30
00
00
ENDCHAR
STARTCHAR C110
ENCODING 72
SWIDTH 666 0
DWIDTH 6 0
BBX 6 9 0 -2
BITMAP
00
48
48
78
48
48
48
00
00
ENDCHAR
STARTCHAR C111
ENCODING 73
SWIDTH 666 0
DWIDTH 6 0
BBX 6 9 0 -2
BITMAP
00
70
20
20
20
20
70
00
00
ENDCHAR
STARTCHAR C112
ENCODING 74
SWIDTH 666 0
DWIDTH 6 0
BBX 6 9 0 -2
BITMAP
00
38
08
08
08
48
38
00
00
ENDCHAR
STARTCHAR C113
ENCODING 75
SWIDTH 666 0
DWIDTH 6 0
BBX 6 9 0 -2
BITMAP
00
48
50
60
50
48
48
00
00
ENDCHAR
STARTCHAR C114
ENCODING 76
SWIDTH 666 0
DWIDTH 6 0
BBX 6 9 0 -2
BITMAP
00
40
40
40
40
40
78
00
00
ENDCHAR
STARTCHAR C115
ENCODING 77
SWIDTH 666 0
DWIDTH 6 0
BBX 6 9 0 -2
BITMAP
00
44
6c
54
54
44
44
00
00
ENDCHAR
STARTCHAR C116
ENCODING 78
SWIDTH 666 0
DWIDTH 6 0
BBX 6 9 0 -2
BITMAP
00
48
68
58
48
48
48
00
00
ENDCHAR
STARTCHAR C117
ENCODING 79
SWIDTH 666 0
DWIDTH 6 0
BBX 6 9 0 -2
BITMAP
00
30
48
48
48
48
30
00
00
ENDCHAR
STARTCHAR C120
ENCODING 80
SWIDTH 666 0
DWIDTH 6 0
BBX 6 9 0 -2
BITMAP
00
70
48
48
70
40
40
00
00
ENDCHAR
STARTCHAR C121
ENCODING 81
SWIDTH 666 0
DWIDTH 6 0
BBX 6 9 0 -2
BITMAP
00
30
48
48
68
58
30
08
00
ENDCHAR
STARTCHAR C122
ENCODING 82
SWIDTH 666 0
DWIDTH 6 0
BBX 6 9 0 -2
BITMAP
00
70
48
48
70
48
48
00
00
ENDCHAR
STARTCHAR C123
ENCODING 83
SWIDTH 666 0
DWIDTH 6 0
BBX 6 9 0 -2
BITMAP
00
30
48
20
10
48
30
00
00
ENDCHAR
STARTCHAR C124
ENCODING 84
SWIDTH 666 0
DWIDTH 6 0
BBX 6 9 0 -2
BITMAP
00
7c
10
10
10
10
10
00
00
ENDCHAR
STARTCHAR C125
ENCODING 85
SWIDTH 666 0
DWIDTH 6 0
BBX 6 9 0 -2
BITMAP
00
48
48
48
48
48
30
00
00
ENDCHAR
STARTCHAR C126
ENCODING 86
SWIDTH 666 0
DWIDTH 6 0
BBX 6 9 0 -2
BITMAP
00
48
48
48
78
30
30
00
00
ENDCHAR
STARTCHAR C127
ENCODING 87
SWIDTH 666 0
DWIDTH 6 0
BBX 6 9 0 -2
BITMAP
00
44
44
54
54
6c
44
00
00
ENDCHAR
STARTCHAR C130
ENCODING 88
SWIDTH 666 0
DWIDTH 6 0
BBX 6 9 0 -2
BITMAP
00
44
28
10
28
28
44
00
00
ENDCHAR
STARTCHAR C131
ENCODING 89
SWIDTH 666 0
DWIDTH 6 0
BBX 6 9 0 -2
BITMAP
00
44
44
28
10
10
10
00
00
ENDCHAR
STARTCHAR C132
ENCODING 90
SWIDTH 666 0
DWIDTH 6 0
BBX 6 9 0 -2
BITMAP
00
78
08
10
20
40
78
00
00
ENDCHAR
STARTCHAR C133
ENCODING 91
SWIDTH 666 0
DWIDTH 6 0
BBX 6 9 0 -2
BITMAP
00
70
40
40
40
40
70
00
00
ENDCHAR
STARTCHAR C134
ENCODING 92
SWIDTH 666 0
DWIDTH 6 0
BBX 6 9 0 -2
BITMAP
00
40
40
20
10
08
08
00
00
ENDCHAR
STARTCHAR C135
ENCODING 93
SWIDTH 666 0
DWIDTH 6 0
BBX 6 9 0 -2
BITMAP
00
70
10
10
10
10
70
00
00
ENDCHAR
STARTCHAR C136
ENCODING 94
SWIDTH 666 0
DWIDTH 6 0
BBX 6 9 0 -2
BITMAP
00
10
28
44
00
00
00
00
00
ENDCHAR
STARTCHAR C137
ENCODING 95
SWIDTH 666 0
DWIDTH 6 0
BBX 6 9 0 -2
BITMAP
00
00
00
00
00
00
00
00
7c
ENDCHAR
STARTCHAR C140
ENCODING 96
SWIDTH 666 0
DWIDTH 6 0
BBX 6 9 0 -2
BITMAP
00
30
20
20
10
00
00
00
00
ENDCHAR
STARTCHAR C141
ENCODING 97
SWIDTH 666 0
DWIDTH 6 0
BBX 6 9 0 -2
BITMAP
00
00
00
38
48
48
3c
00
00
ENDCHAR
STARTCHAR C142
ENCODING 98
SWIDTH 666 0
DWIDTH 6 0
BBX 6 9 0 -2
BITMAP
40
40
40
70
48
48
70
00
00
ENDCHAR
STARTCHAR C143
ENCODING 99
SWIDTH 666 0
DWIDTH 6 0
BBX 6 9 0 -2
BITMAP
00
00
00
38
40
40
38
00
00
ENDCHAR
STARTCHAR C144
ENCODING 100
SWIDTH 666 0
DWIDTH 6 0
BBX 6 9 0 -2
BITMAP
08
08
08
38
48
48
38
00
00
ENDCHAR
STARTCHAR C145
ENCODING 101
SWIDTH 666 0
DWIDTH 6 0
BBX 6 9 0 -2
BITMAP
00
00
00
30
58
60
38
00
00
ENDCHAR
STARTCHAR C146
ENCODING 102
SWIDTH 666 0
DWIDTH 6 0
BBX 6 9 0 -2
BITMAP
10
38
20
70
20
20
20
00
00
ENDCHAR
STARTCHAR C147
ENCODING 103
SWIDTH 666 0
DWIDTH 6 0
BBX 6 9 0 -2
BITMAP
00
00
00
30
48
58
28
08
30
ENDCHAR
STARTCHAR C150
ENCODING 104
SWIDTH 666 0
DWIDTH 6 0
BBX 6 9 0 -2
BITMAP
40
40
40
50
68
48
48
00
00
ENDCHAR
STARTCHAR C151
ENCODING 105
SWIDTH 666 0
DWIDTH 6 0
BBX 6 9 0 -2
BITMAP
00
10
00
30
10
10
38
00
00
ENDCHAR
STARTCHAR C152
ENCODING 106
SWIDTH 666 0
DWIDTH 6 0
BBX 6 9 0 -2
BITMAP
00
10
00
30
10
10
10
70
20
ENDCHAR
STARTCHAR C153
ENCODING 107
SWIDTH 666 0
DWIDTH 6 0
BBX 6 9 0 -2
BITMAP
40
40
48
50
70
48
48
00
00
ENDCHAR
STARTCHAR C154
ENCODING 108
SWIDTH 666 0
DWIDTH 6 0
BBX 6 9 0 -2
BITMAP
00
30
10
10
10
10
38
00
00
ENDCHAR
STARTCHAR C155
ENCODING 109
SWIDTH 666 0
DWIDTH 6 0
BBX 6 9 0 -2
BITMAP
00
00
00
68
54
54
44
00
00
ENDCHAR
STARTCHAR C156
ENCODING 110
SWIDTH 666 0
DWIDTH 6 0
BBX 6 9 0 -2
BITMAP
00
00
00
70
48
48
48
00
00
ENDCHAR
STARTCHAR C157
ENCODING 111
SWIDTH 666 0
DWIDTH 6 0
BBX 6 9 0 -2
BITMAP
00
00
00
30
48
48
30
00
00
ENDCHAR
STARTCHAR C160
ENCODING 112
SWIDTH 666 0
DWIDTH 6 0
BBX 6 9 0 -2
BITMAP
00
00
00
70
48
48
70
40
40
ENDCHAR
STARTCHAR C161
ENCODING 113
SWIDTH 666 0
DWIDTH 6 0
BBX 6 9 0 -2
BITMAP
00
00
00
38
48
48
38
08
08
ENDCHAR
STARTCHAR C162
ENCODING 114
SWIDTH 666 0
DWIDTH 6 0
BBX 6 9 0 -2
BITMAP
00
00
00
50
68
40
40
00
00
ENDCHAR
STARTCHAR C163
ENCODING 115
SWIDTH 666 0
DWIDTH 6 0
BBX 6 9 0 -2
BITMAP
00
00
00
78
60
18
78
00
00
ENDCHAR
STARTCHAR C164
ENCODING 116
SWIDTH 666 0
DWIDTH 6 0
BBX 6 9 0 -2
BITMAP
20
20
70
20
28
28
10
00
00
ENDCHAR
STARTCHAR C165
ENCODING 117
SWIDTH 666 0
DWIDTH 6 0
BBX 6 9 0 -2
BITMAP
00
00
00
48
48
48
38
00
00
ENDCHAR
STARTCHAR C166
ENCODING 118
SWIDTH 666 0
DWIDTH 6 0
BBX 6 9 0 -2
BITMAP
00
00
00
48
48
30
30
00
00
ENDCHAR
STARTCHAR C167
ENCODING 119
SWIDTH 666 0
DWIDTH 6 0
BBX 6 9 0 -2
BITMAP
00
00
00
44
54
54
28
00
00
ENDCHAR
STARTCHAR C170
ENCODING 120
SWIDTH 666 0
DWIDTH 6 0
BBX 6 9 0 -2
BITMAP
00
00
00
48
30
30
48
00
00
ENDCHAR
STARTCHAR C171
ENCODING 121
SWIDTH 666 0
DWIDTH 6 0
BBX 6 9 0 -2
BITMAP
00
00
00
48
48
68
18
48
30
ENDCHAR
STARTCHAR C172
ENCODING 122
SWIDTH 666 0
DWIDTH 6 0
BBX 6 9 0 -2
BITMAP
00
00
00
78
18
60
78
00
00
ENDCHAR
STARTCHAR C173
ENCODING 123
SWIDTH 666 0
DWIDTH 6 0
BBX 6 9 0 -2
BITMAP
10
20
20
60
20
20
10
00
00
ENDCHAR
STARTCHAR C174
ENCODING 124
SWIDTH 666 0
DWIDTH 6 0
BBX 6 9 0 -2
BITMAP
00
20
20
20
00
20
20
20
00
ENDCHAR
STARTCHAR C175
ENCODING 125
SWIDTH 666 0
DWIDTH 6 0
BBX 6 9 0 -2
BITMAP
40
20
20
30
20
20
40
00
00
ENDCHAR
STARTCHAR C176
ENCODING 126
SWIDTH 666 0
DWIDTH 6 0
BBX 6 9 0 -2
BITMAP
00
00
28
50
00
00
00
00
00
ENDCHAR
STARTCHAR C177
ENCODING 127
SWIDTH 666 0
DWIDTH 6 0
BBX 6 9 0 -2
BITMAP
00
00
00
00
00
00
00
00
00
ENDCHAR
ENDFONT
